HIERARCHY
ROOT Hips
{
	OFFSET 0.00000 0.00000 0.00000
	CHANNELS 6 Xposition Yposition Zposition Yrotation Zrotation Xrotation 
	JOINT Lumbar
	{
		OFFSET 0 0 0
		CHANNELS 3 Zrotation Xrotation Yrotation
		JOINT Neck
		{
			OFFSET 0.00 0.2701 0.00
			CHANNELS 3 Zrotation Xrotation Yrotation
			End Site
			{
				OFFSET 0.00 0.1379 0.00
			}
		}
		JOINT RightShoulder
		{
			OFFSET 0.0119 0.2289 0.1181
			CHANNELS 3 Zrotation Xrotation Yrotation
			JOINT RightElbow
			{
				OFFSET 0.00 -0.1475 0.00
				CHANNELS 2 Zrotation Yrotation
				JOINT RightWrist
				{
					OFFSET 0.00 -0.1605 0.00
					CHANNELS 2 Zrotation Xrotation
					End Site
					{
						OFFSET 0.0040 -0.1068 0.0006
					}
				}
			}
		}
		JOINT LeftShoulder
		{
			OFFSET 0.0119 0.2289 -0.1181
			CHANNELS 3 Zrotation Xrotation Yrotation
			JOINT LeftElbow
			{
				OFFSET 0.00 -0.1475 0.00
				CHANNELS 2 Zrotation Yrotation
				JOINT LeftWrist
				{
					OFFSET 0.00 -0.1605 0.00
					CHANNELS 2 Zrotation Xrotation
					End Site
					{
						OFFSET 0.0040 -0.1068 -0.0006
					}
				}
			}
		}
	}
	JOINT RightHip
	{
		OFFSET 0.0316 -0.0424 0.0458
		CHANNELS 3 Zrotation Xrotation Yrotation
		JOINT RightKnee
		{
			OFFSET 0.00 -0.2438 0.00
			CHANNELS 1 Zrotation
			JOINT RightAnkle
			{
				OFFSET 0.00 -0.2449 0.00
				CHANNELS 3 Zrotation Xrotation Yrotation
				End Site
				{
					OFFSET 0.1237 -0.0542 0.0051
				}
			}
		}
	}
	JOINT LeftHip
	{
		OFFSET 0.0316 -0.0424 -0.0458
		CHANNELS 3 Zrotation Xrotation Yrotation
		JOINT LeftKnee
		{
			OFFSET 0.00 -0.2438 0.00
			CHANNELS 1 Zrotation
			JOINT LeftAnkle
			{
				OFFSET 0.00 -0.2449 0.00
				CHANNELS 3 Zrotation Xrotation Yrotation
				End Site
				{
					OFFSET 0.1237 -0.0542 -0.0051
				}
			}
		}
	}
}
MOTION
Frames: 11
Frame Time: 0.02
-0.00084 5e-05 -0.0006 -176.90056 -26.69391 1.77768 45.46365 -0.18377 -8.01639 -14.80534 0.56223 -1.13572 -21.84238 -7.18007 -2.25721 27.80558 57.42072 -2.0291 -4.74397 -28.31243 6.75063 4.3337 33.56142 -105.27989 16.23407 -1.95191 27.11184 -4.47987 -6.20014 -20.24986 -6.61478 -3.52466 -3.93355 31.41915 4.23061 4.87811 -24.18823 -6.62473 2.70956 3.51391
0.00012 3e-05 -0.00062 -176.70308 -26.73729 1.75793 45.33677 -0.18245 -7.95799 -14.62858 0.71355 -1.13731 -21.57205 -6.74112 -4.16389 27.29939 64.75671 -0.18753 -3.4545 -27.94029 6.681 4.47622 33.41603 -105.29025 16.2051 -1.95831 27.25177 -4.48362 -6.44032 -20.275 -6.61599 -3.5206 -3.93238 31.63034 4.26263 4.9003 -24.21588 -6.62508 2.6697 3.49754
0.00107 1e-05 -0.00064 -176.50603 -26.78044 1.73825 45.21018 -0.18116 -7.89977 -14.45249 0.86446 -1.13891 -21.30267 -6.30396 -6.06248 26.79481 72.06084 1.64606 -2.17063 -27.56933 6.6114 4.61845 33.2709 -105.30084 16.17632 -1.96473 27.39119 -4.48741 -6.67999 -20.30009 -6.61719 -3.51655 -3.93121 31.84084 4.29466 4.92295 -24.24346 -6.62542 2.6299 3.48119
0.00203 -1e-05 -0.00066 -176.30913 -26.82367 1.71856 45.08368 -0.17985 -7.84155 -14.27629 1.01532 -1.1405 -21.0332 -5.86645 -7.96285 26.29018 79.37243 3.4815 -0.88545 -27.19834 6.54197 4.76049 33.12593 -105.31093 16.14736 -1.97108 27.53066 -4.49116 -6.91947 -20.32516 -6.6184 -3.51251 -3.93004 32.05137 4.32661 4.94518 -24.27103 -6.62576 2.59015 3.46487
0.00299 -3e-05 -0.00068 -176.11186 -26.86717 1.69878 44.95691 -0.17852 -7.78314 -14.09939 1.16658 -1.14209 -20.76273 -5.42695 -9.87232 25.78394 86.72021 5.32603 0.40611 -26.82615 6.47256 4.90292 32.98074 -105.32149 16.11844 -1.97751 27.67067 -4.49486 -7.15939 -20.35026 -6.61961 -3.50845 -3.92887 32.26261 4.3585 4.96669 -24.29867 -6.62611 2.55039 3.44856
0.00394 -5e-05 -0.0007 -175.9153 -26.90958 1.67933 44.83072 -0.17731 -7.72531 -13.92502 1.31674 -1.14368 -20.49563 -4.99473 -11.74805 25.28287 93.93274 7.13665 1.67384 -26.45784 6.40253 5.04482 32.83575 -105.3326 16.09011 -1.98398 27.80885 -4.49882 -7.39849 -20.37533 -6.62079 -3.50442 -3.9277 32.47155 4.39081 4.99171 -24.3261 -6.62643 2.51051 3.43214
0.0049 -7e-05 -0.00072 -175.71753 -26.95413 1.65924 44.70351 -0.17585 -7.66641 -13.74572 1.46892 -1.14528 -20.22209 -4.54847 -13.68898 24.77195 101.4066 9.01276 2.98761 -26.08213 6.3339 5.18719 32.69054 -105.34051 16.05993 -1.99003 27.95054 -4.50226 -7.63898 -20.40043 -6.62205 -3.50035 -3.92653 32.68487 4.42226 5.0098 -24.35391 -6.6268 2.47089 3.41594
0.00586 -9e-05 -0.00074 -175.52085 -26.9967 1.63974 44.57725 -0.17463 -7.60844 -13.57102 1.61926 -1.14688 -19.95442 -4.11491 -15.57094 24.27011 108.64472 10.82982 4.25986 -25.71321 6.26385 5.32993 32.54552 -105.35514 16.03271 -1.9971 28.08901 -4.50617 -7.8782 -20.42551 -6.62323 -3.49631 -3.92536 32.89418 4.45446 5.034 -24.38139 -6.62713 2.43105 3.39955
0.0068 -0.00011 -0.00076 -175.32549 -27.03687 1.62098 44.45203 -0.17367 -7.55179 -13.40169 1.76735 -1.14845 -19.69409 -3.69774 -17.37659 23.77921 115.5752 12.56975 5.47788 -25.35257 6.1925 5.47002 32.40067 -105.36308 16.00413 -2.00292 28.22352 -4.51069 -8.11596 -20.45055 -6.6243 -3.49231 -3.92419 33.09854 4.4878 5.06687 -24.40844 -6.6274 2.39085 3.38288
0.0078 -0.00013 -0.00078 -175.12251 -27.09092 1.59798 44.32045 -0.17112 -7.4881 -13.20067 1.92841 -1.1501 -19.39204 -3.18886 -19.60859 23.22487 124.2172 14.73857 6.99747 -24.94422 6.12996 5.61605 32.25467 -105.36472 15.96844 -2.00843 28.38077 -4.51183 -8.36241 -20.4758 -6.62596 -3.48809 -3.92304 33.33124 4.51524 5.05348 -24.43788 -6.62799 2.35245 3.36767
0.00868 -0.00015 -0.0008 -174.93565 -27.11566 1.5839 44.20253 -0.17196 -7.43893 -13.06701 2.06205 -1.1516 -19.17766 -2.87181 -20.94931 22.80472 129.2861 16.01217 7.88755 -24.63663 6.04801 5.75546 32.11122 -105.40822 15.95727 -2.01938 28.49007 -4.51999 -8.59028 -20.50062 -6.62641 -3.48434 -3.92184 33.50423 4.55472 5.13532 -24.46232 -6.62792 2.31043 3.34949
